<?xml version="1.0" encoding="utf-8"?>

<!-- Uploaded to: SVG Repo, www.svgrepo.com, Generator: SVG Repo Mixer Tools -->
<svg fill="#000000" height="800px" width="800px" version="1.1" id="Icons" xmlns="http://www.w3.org/2000/svg" xmlns:xlink="http://www.w3.org/1999/xlink" 
	 viewBox="0 0 32 32" xml:space="preserve">
<path d="M16,2C8.3,2,2,8.3,2,16s6.3,14,14,14s14-6.3,14-14S23.7,2,16,2z M19,12c0-0.6,0.4-1,1-1s1,0.4,1,1v4c0,0.6-0.4,1-1,1
	s-1-0.4-1-1V12z M9,16c0-1.7,1.3-3,3-3s3,1.3,3,3c0,0.6-0.4,1-1,1s-1-0.4-1-1c0-0.6-0.4-1-1-1s-1,0.4-1,1c0,0.6-0.4,1-1,1
	S9,16.6,9,16z M21.9,19.8C20.3,21.2,18.2,22,16,22v1c0,1.7-1.3,3-3,3s-3-1.3-3-3v-4c0-0.4,0.2-0.7,0.6-0.9c0.3-0.2,0.8-0.1,1.1,0.1
	c1,0.8,2.6,1.8,4.4,1.8c1.7,0,3.3-0.6,4.6-1.8c0.4-0.4,1-0.3,1.4,0.1C22.4,18.8,22.4,19.4,21.9,19.8z"/>
</svg>